<svg width="24" height="24" viewBox="0 0 24 24" fill="none" xmlns="http://www.w3.org/2000/svg">
<path d="M19.622 10.8859C19.5215 10.8713 19.4317 10.7983 19.3528 10.6668C19.2738 10.5354 19.2128 10.2944 19.1697 9.9439C19.0979 9.37432 18.9148 8.95444 18.6205 8.68425C18.3261 8.41406 17.8702 8.22055 17.2528 8.10372C16.6066 7.97228 16.0358 7.70574 15.5404 7.30412C15.0451 6.90249 14.6322 6.52642 14.302 6.17591C13.9861 5.86921 13.742 5.75968 13.5697 5.84731C13.3974 5.93493 13.3112 6.09558 13.3112 6.32926L13.3112 7.27125L13.3112 9.3305C13.3112 10.1484 13.3076 11.0319 13.3004 11.9812C13.2933 12.9305 13.2897 13.8287 13.2897 14.6758L13.2897 16.9103L13.2897 18.159C13.304 18.5095 13.2502 18.9002 13.1281 19.331C13.0061 19.7618 12.7763 20.1671 12.4389 20.5468C12.1015 20.9266 11.6527 21.2515 11.0927 21.5217C10.5327 21.7919 9.83633 21.9489 9.00351 21.9927C8.15633 22.0365 7.39171 21.8832 6.70966 21.5327C6.02761 21.1821 5.49991 20.7404 5.12658 20.2073C4.75325 19.6742 4.57017 19.09 4.57735 18.4547C4.58453 17.8194 4.85376 17.2243 5.38504 16.6693C5.91633 16.1143 6.49069 15.7273 7.10812 15.5083C7.72556 15.2892 8.32146 15.1687 8.89582 15.1468C9.47018 15.1249 9.98351 15.165 10.4358 15.2673C10.8881 15.3695 11.222 15.4644 11.4374 15.5521L11.4374 9.35241C11.4374 7.62907 11.4445 5.68666 11.4589 3.52517C11.4589 3.10164 11.5666 2.75478 11.782 2.4846C11.9974 2.21441 12.2845 2.05741 12.6435 2.0136C12.9451 1.96978 13.1928 2.03185 13.3866 2.19981C13.5804 2.36776 13.7779 2.60143 13.9789 2.90083C14.1799 3.20022 14.4276 3.53978 14.722 3.9195C15.0163 4.29922 15.4148 4.67164 15.9174 5.03675C16.3481 5.37266 16.7251 5.61363 17.0481 5.75968C17.3712 5.90572 17.6728 6.04082 17.9528 6.16496C18.2328 6.2891 18.5092 6.43879 18.782 6.61405C19.0548 6.7893 19.3563 7.07409 19.6866 7.46842C20.0169 7.84814 20.2179 8.24246 20.2897 8.65139C20.3615 9.06032 20.3651 9.43274 20.3005 9.76864C20.2358 10.1045 20.1317 10.3784 19.9881 10.5902C19.8446 10.8019 19.7225 10.9005 19.622 10.8859Z" fill="#1BADFF"/>
</svg>
