<svg width="115" height="112" viewBox="0 0 115 112" fill="none" xmlns="http://www.w3.org/2000/svg">
<g clip-path="url(#clip0_83_403)">
<path fill-rule="evenodd" clip-rule="evenodd" d="M112 24.64C112 11.0409 100.96 0 87.36 0H24.64C11.0409 0 0 11.0409 0 24.64V87.36C0 100.959 11.0409 112 24.64 112H87.36C100.96 112 112 100.959 112 87.36V24.64Z" fill="#151518"/>
<path d="M83.4593 56.9844C82.1439 39.8437 68.3198 26.3594 51.4601 26.3594C34.6004 26.3594 20.7763 39.8437 19.4609 56.9844H34.5731C34.9483 45.3228 44.5199 35.9844 56.2726 35.9844C68.0253 35.9844 77.5969 45.3228 77.9721 56.9844H83.4593Z" fill="url(#paint0_linear_83_403)"/>
<path d="M34.5617 56.875C34.5617 61.043 31.1828 64.4219 27.0148 64.4219C22.8468 64.4219 19.4679 61.043 19.4679 56.875C19.4679 52.707 22.8468 49.3281 27.0148 49.3281C31.1828 49.3281 34.5617 52.707 34.5617 56.875Z" fill="url(#paint1_linear_83_403)"/>
<path d="M83.4523 56.9844C83.4523 58.4945 82.2281 59.7188 80.7179 59.7188C79.2078 59.7188 77.9835 58.4945 77.9835 56.9844C77.9835 55.4742 79.2078 54.25 80.7179 54.25C82.2281 54.25 83.4523 55.4742 83.4523 56.9844Z" fill="url(#paint2_linear_83_403)"/>
<path d="M28.9831 55.3438C30.2985 72.4844 44.1226 85.9688 60.9823 85.9688C77.842 85.9688 91.6661 72.4844 92.9814 55.3438H77.8693C77.4941 67.0053 67.9225 76.3438 56.1698 76.3438C44.4171 76.3438 34.8454 67.0053 34.4703 55.3438H28.9831Z" fill="url(#paint3_linear_83_403)"/>
<path d="M77.8807 55.4531C77.8807 51.2851 81.2596 47.9062 85.4276 47.9062C89.5956 47.9062 92.9745 51.2851 92.9745 55.4531C92.9745 59.6211 89.5956 63 85.4276 63C81.2596 63 77.8807 59.6211 77.8807 55.4531Z" fill="url(#paint4_linear_83_403)"/>
<path d="M28.9901 55.3438C28.9901 53.8336 30.2143 52.6094 31.7245 52.6094C33.2346 52.6094 34.4588 53.8336 34.4588 55.3438C34.4588 56.8539 33.2346 58.0781 31.7245 58.0781C30.2143 58.0781 28.9901 56.8539 28.9901 55.3438Z" fill="url(#paint5_linear_83_403)"/>
<path d="M65.1967 58.8288C67.0441 57.625 66.9684 54.8946 65.0572 53.795L53.4253 47.1021C51.4566 45.9693 48.9994 47.39 48.9994 49.6614C48.9994 53.6528 48.9994 59.2854 48.9994 63.938C48.9994 66.2826 51.6004 67.6887 53.5648 66.4086L65.1967 58.8288Z" fill="#1BADFF"/>
</g>
<rect x="84" y="81" width="31" height="31" rx="5" fill="#FFAD4D"/>
<path d="M103.148 92.8133C103.148 92.4311 103.428 92.1175 103.769 92.1175C104.111 92.1175 104.391 92.4311 104.391 92.8133V103.363C104.391 103.746 104.111 104.059 103.769 104.059C103.428 104.059 103.148 103.746 103.148 103.363V92.8133ZM95.507 92.8133C95.507 92.4311 95.7872 92.1175 96.1286 92.1175C96.47 92.1175 96.7502 92.4311 96.7502 92.8133V103.363C96.7502 103.746 96.47 104.059 96.1286 104.059C95.7872 104.059 95.507 103.746 95.507 103.363V92.8133ZM99.3274 92.8133C99.3274 92.4311 99.6076 92.1175 99.949 92.1175C100.29 92.1175 100.571 92.4311 100.571 92.8133V103.363C100.571 103.746 100.29 104.059 99.949 104.059C99.6076 104.059 99.3274 103.746 99.3274 103.363V92.8133ZM96.7112 89.2378V88.5772H102.691V89.2396H96.7112V89.2378ZM107.46 89.2378H103.986V88.4065C103.986 87.759 103.419 87.2524 102.693 87.2524H96.713C95.9876 87.2524 95.4198 87.759 95.4198 88.4065V89.2378H91.8369C91.4806 89.2378 91.1912 89.5328 91.1912 89.9002C91.1893 90.2657 91.4788 90.5626 91.8369 90.5626H93.1969V104.518C93.1969 105.23 93.7758 105.809 94.4902 105.809H104.916C105.629 105.809 106.209 105.23 106.209 104.518V90.5626H107.46C107.816 90.5626 108.106 90.2676 108.106 89.9002C108.107 89.5347 107.818 89.2378 107.46 89.2378V89.2378Z" fill="white"/>
<defs>
<linearGradient id="paint0_linear_83_403" x1="79.3755" y1="32.699" x2="22.1268" y2="33.7008" gradientUnits="userSpaceOnUse">
<stop stop-color="#1BADFF" stop-opacity="0"/>
<stop offset="0.47626" stop-color="#1BADFF"/>
<stop offset="1" stop-color="#FFDA55"/>
</linearGradient>
<linearGradient id="paint1_linear_83_403" x1="79.3755" y1="32.699" x2="22.1268" y2="33.7008" gradientUnits="userSpaceOnUse">
<stop stop-color="#1BADFF" stop-opacity="0"/>
<stop offset="0.47626" stop-color="#1BADFF"/>
<stop offset="1" stop-color="#FFDA55"/>
</linearGradient>
<linearGradient id="paint2_linear_83_403" x1="79.3755" y1="32.699" x2="22.1268" y2="33.7008" gradientUnits="userSpaceOnUse">
<stop stop-color="#1BADFF" stop-opacity="0"/>
<stop offset="0.47626" stop-color="#1BADFF"/>
<stop offset="1" stop-color="#FFDA55"/>
</linearGradient>
<linearGradient id="paint3_linear_83_403" x1="33.0669" y1="79.6291" x2="90.3156" y2="78.6273" gradientUnits="userSpaceOnUse">
<stop stop-color="#1BADFF" stop-opacity="0"/>
<stop offset="0.47626" stop-color="#1BADFF"/>
<stop offset="1" stop-color="#FFDA55"/>
</linearGradient>
<linearGradient id="paint4_linear_83_403" x1="33.0669" y1="79.6291" x2="90.3156" y2="78.6273" gradientUnits="userSpaceOnUse">
<stop stop-color="#1BADFF" stop-opacity="0"/>
<stop offset="0.47626" stop-color="#1BADFF"/>
<stop offset="1" stop-color="#FFDA55"/>
</linearGradient>
<linearGradient id="paint5_linear_83_403" x1="33.0669" y1="79.6291" x2="90.3156" y2="78.6273" gradientUnits="userSpaceOnUse">
<stop stop-color="#1BADFF" stop-opacity="0"/>
<stop offset="0.47626" stop-color="#1BADFF"/>
<stop offset="1" stop-color="#FFDA55"/>
</linearGradient>
<clipPath id="clip0_83_403">
<rect width="112" height="112" rx="10" fill="white"/>
</clipPath>
</defs>
</svg>
