<svg width="14" height="14" viewBox="0 0 14 14" fill="none" xmlns="http://www.w3.org/2000/svg">
<g clip-path="url(#clip0_83_270)">
<path fill-rule="evenodd" clip-rule="evenodd" d="M12 1H2C1.44772 1 1 1.44772 1 2V12C1 12.5523 1.44772 13 2 13H12C12.5523 13 13 12.5523 13 12V2C13 1.44772 12.5523 1 12 1ZM2 0C0.895431 0 0 0.89543 0 2V12C0 13.1046 0.89543 14 2 14H12C13.1046 14 14 13.1046 14 12V2C14 0.895431 13.1046 0 12 0H2Z" fill="#A5A5A5"/>
<path fill-rule="evenodd" clip-rule="evenodd" d="M11.3221 3.61756C11.5333 3.79543 11.5603 4.11085 11.3825 4.32208L7.06465 9.44947C6.48077 10.1428 5.42006 10.1639 4.80914 9.49421L2.63062 7.10622C2.44451 6.90222 2.45902 6.58597 2.66302 6.39986C2.86703 6.21375 3.18328 6.22826 3.36939 6.43226L5.5479 8.82025C5.75154 9.04347 6.10511 9.03646 6.29974 8.80534L10.6175 3.67794C10.7954 3.46672 11.1108 3.43968 11.3221 3.61756Z" fill="#A5A5A5"/>
</g>
<defs>
<clipPath id="clip0_83_270">
<rect width="14" height="14" fill="white"/>
</clipPath>
</defs>
</svg>
