<svg width="14" height="14" viewBox="0 0 14 14" fill="none" xmlns="http://www.w3.org/2000/svg">
<g clip-path="url(#clip0_83_273)">
<path d="M0 2C0 0.89543 0.895431 0 2 0H12C13.1046 0 14 0.895431 14 2V12C14 13.1046 13.1046 14 12 14H2C0.89543 14 0 13.1046 0 12V2Z" fill="#555555"/>
<path fill-rule="evenodd" clip-rule="evenodd" d="M12 1H2C1.44772 1 1 1.44772 1 2V12C1 12.5523 1.44772 13 2 13H12C12.5523 13 13 12.5523 13 12V2C13 1.44772 12.5523 1 12 1ZM2 0C0.895431 0 0 0.89543 0 2V12C0 13.1046 0.89543 14 2 14H12C13.1046 14 14 13.1046 14 12V2C14 0.895431 13.1046 0 12 0H2Z" fill="#CCCCCC"/>
<path d="M3 6.76923L5.17852 9.15722C5.5858 9.60366 6.29294 9.58963 6.68219 9.12739L11 4" stroke="#CCCCCC" stroke-linecap="round"/>
</g>
<defs>
<clipPath id="clip0_83_273">
<rect width="14" height="14" fill="white"/>
</clipPath>
</defs>
</svg>
