<svg width="24" height="24" viewBox="0 0 24 24" fill="none" xmlns="http://www.w3.org/2000/svg">
<path d="M5 8V18C5 19.6569 6.34315 21 8 21H16C17.6569 21 19 19.6569 19 18V8H21V18C21 20.7614 18.7614 23 16 23H8C5.23858 23 3 20.7614 3 18V8H5Z" fill="#1BADFF"/>
<path d="M9 11C9.55228 11 10 11.4477 10 12V17C10 17.5523 9.55228 18 9 18C8.44772 18 8 17.5523 8 17L8 12C8 11.4477 8.44772 11 9 11Z" fill="#1BADFF"/>
<path d="M15 11C15.5523 11 16 11.4477 16 12V17C16 17.5523 15.5523 18 15 18C14.4477 18 14 17.5523 14 17V12C14 11.4477 14.4477 11 15 11Z" fill="#1BADFF"/>
<path d="M6 6V5C6 2.79086 7.79086 1 10 1H14C16.2091 1 18 2.79086 18 5V6H22C22.5523 6 23 6.44772 23 7C23 7.55228 22.5523 8 22 8H2C1.44772 8 1 7.55228 1 7C1 6.44772 1.44772 6 2 6H6ZM10 3C8.89543 3 8 3.89543 8 5V6H16V5C16 3.89543 15.1046 3 14 3H10Z" fill="#1BADFF"/>
</svg>
