<svg width="14" height="14" viewBox="0 0 14 14" fill="none" xmlns="http://www.w3.org/2000/svg">
<g clip-path="url(#clip0_83_277)">
<path fill-rule="evenodd" clip-rule="evenodd" d="M12 1H2C1.44772 1 1 1.44772 1 2V12C1 12.5523 1.44772 13 2 13H12C12.5523 13 13 12.5523 13 12V2C13 1.44772 12.5523 1 12 1ZM2 0C0.895431 0 0 0.89543 0 2V12C0 13.1046 0.89543 14 2 14H12C13.1046 14 14 13.1046 14 12V2C14 0.895431 13.1046 0 12 0H2Z" fill="#A5A5A5"/>
</g>
<defs>
<clipPath id="clip0_83_277">
<rect width="14" height="14" fill="white"/>
</clipPath>
</defs>
</svg>
