<svg width="18" height="18" viewBox="0 0 18 18" fill="none" xmlns="http://www.w3.org/2000/svg">
<path d="M2.25 5.5C2.25 3.98122 3.48122 2.75 5 2.75H7.41776C8.06192 2.75 8.68563 2.97613 9.18013 3.38894L10.7005 4.65816H13C14.5188 4.65816 15.75 5.88938 15.75 7.40816V12.5C15.75 14.0188 14.5188 15.25 13 15.25H5C3.48122 15.25 2.25 14.0188 2.25 12.5V5.5ZM5 4.25C4.30964 4.25 3.75 4.80964 3.75 5.5V12.5C3.75 13.1904 4.30964 13.75 5 13.75H13C13.6904 13.75 14.25 13.1904 14.25 12.5V7.40816C14.25 6.71781 13.6904 6.15816 13 6.15816H10.5011C10.2786 6.15816 10.0631 6.08005 9.89227 5.93744L8.21884 4.54043C7.99407 4.35278 7.71056 4.25 7.41776 4.25H5Z" fill="#3E3E3E"/>
<path d="M10 9.5C10 10.0523 9.55228 10.5 9 10.5C8.44772 10.5 8 10.0523 8 9.5C8 8.94772 8.44772 8.5 9 8.5C9.55228 8.5 10 8.94772 10 9.5Z" fill="#3E3E3E"/>
<path d="M7 9.5C7 10.0523 6.55228 10.5 6 10.5C5.44772 10.5 5 10.0523 5 9.5C5 8.94772 5.44772 8.5 6 8.5C6.55228 8.5 7 8.94772 7 9.5Z" fill="#3E3E3E"/>
<path d="M13 9.5C13 10.0523 12.5523 10.5 12 10.5C11.4477 10.5 11 10.0523 11 9.5C11 8.94772 11.4477 8.5 12 8.5C12.5523 8.5 13 8.94772 13 9.5Z" fill="#3E3E3E"/>
</svg>
