<svg width="18" height="18" viewBox="0 0 18 18" fill="none" xmlns="http://www.w3.org/2000/svg">
<path d="M11.1254 3.17916C11.9778 2.89611 12.8862 3.42057 13.0673 4.30031L13.5108 6.45505L15.1551 7.91653C15.8264 8.51322 15.8264 9.56215 15.1551 10.1588L13.5108 11.6203L13.0673 13.7751C12.8862 14.6548 11.9778 15.1793 11.1254 14.8962L9.03755 14.203L6.94973 14.8962C6.09731 15.1793 5.18891 14.6548 5.00783 13.7751L4.5643 11.6203L2.92 10.1588C2.24867 9.56215 2.24867 8.51322 2.92 7.91653L4.5643 6.45505L5.00783 4.30031C5.18891 3.42057 6.09731 2.89611 6.94973 3.17915L9.03755 3.87242L11.1254 3.17916ZM12.0416 6.75747L11.5981 4.60273L9.51025 5.29599C9.20336 5.3979 8.87175 5.39789 8.56485 5.29599L6.47703 4.60273L6.0335 6.75747C5.9683 7.0742 5.8025 7.36138 5.5608 7.57621L3.9165 9.03768L5.5608 10.4992C5.8025 10.714 5.9683 11.0012 6.0335 11.3179L6.47703 13.4726L8.56485 12.7794C8.87175 12.6775 9.20336 12.6775 9.51025 12.7794L11.5981 13.4726L12.0416 11.3179C12.1068 11.0012 12.2726 10.714 12.5143 10.4992L14.1586 9.03768L12.5143 7.57621C12.2726 7.36138 12.1068 7.0742 12.0416 6.75747Z" fill="#3E3E3E"/>
<path d="M11.15 9.00003C11.15 10.1046 10.2546 11 9.14999 11C8.04542 11 7.14999 10.1046 7.14999 9.00003C7.14999 7.89546 8.04542 7.00003 9.14999 7.00003C10.2546 7.00003 11.15 7.89546 11.15 9.00003Z" fill="#3E3E3E"/>
</svg>
